<svg id="Layer_1" data-name="Layer 1" xmlns="http://www.w3.org/2000/svg" viewBox="0 0 630.23 184.1"><defs><style>.cls-1{fill:#231f20;}.cls-2{fill:#e73a45;}.cls-3{fill:#fff;}</style></defs><title>20w0968-kirkland-signature</title><polygon class="cls-1" points="0 0 610.58 0 610.58 179.54 0 179.54 0 0 0 0"/><path class="cls-2" d="M154.8,130.54c6.85-6.85,8.73-3.33,25.15-6.93-16.93,5.91-13.08,9.5-18.73,10.53-4.11.51.26-.77-3.85-2.31-.51-.52-3.59-.26-2.57-1.29Z" transform="translate(-5.22 -9.01)"/><polygon class="cls-3" points="82.86 101.62 69.54 72.38 61.41 83.67 61.41 101.62 39.06 101.62 39.06 24.17 61.41 24.17 61.41 56.12 82.86 24.17 104.2 24.17 84.67 52.51 108.94 101.62 82.86 101.62 82.86 101.62"/><polygon class="cls-3" points="138.18 101.62 114.24 101.62 114.24 24.17 138.18 24.17 138.18 101.62 138.18 101.62"/><path class="cls-3" d="M197.68,110.63,186.39,81.05h-7.45v29.58H154.89V33.18h39.4c6.78,0,14.23.9,20,4.74,6.43,4.07,9.48,10.95,9.48,18.52,0,10.16-4.52,16.26-13.66,20.43l14,33.76ZM187.63,64.45c5.2,0,11.41-.79,11.41-7.45a7.09,7.09,0,0,0-3.73-6.32c-2-1-4.52-1-6.77-1h-9.6V64.45Z" transform="translate(-5.22 -9.01)"/><polygon class="cls-3" points="270.25 101.62 256.92 72.38 248.79 83.67 248.79 101.62 226.44 101.62 226.44 24.17 248.79 24.17 248.79 56.12 270.25 24.17 291.58 24.17 272.05 52.51 296.32 101.62 270.25 101.62 270.25 101.62"/><polygon class="cls-3" points="356.15 101.62 301.85 101.62 301.85 24.17 325.79 24.17 325.79 82.65 356.15 82.65 356.15 101.62 356.15 101.62"/><polygon class="cls-3" points="376.45 101.62 391.47 46.98 406.26 101.62 430.54 101.62 406.26 24.17 381.2 24.17 357.15 101.62 376.45 101.62 376.45 101.62"/><path class="cls-2" d="M389.43,94.47c13.17-16.1,17.94-9,52.28-20.19C406.77,90.52,410.63,94,404.45,98.73c-7,5.44-.15.35-9.26-2.06-1.21-1-7.74.22-5.76-2.2Z" transform="translate(-5.22 -9.01)"/><path class="cls-3" d="M489.26,110.63,467,74.39l-6.89-14-.23.22.23.91a49.22,49.22,0,0,1,1.58,13v36.13h-19.3V33.18h22.46l26,43.24.23-.23-1.7-21.45V33.18h19.31v77.45Z" transform="translate(-5.22 -9.01)"/><path class="cls-3" d="M520.87,33.18h28.56c11.18,0,20.1,1.47,28.45,9.48C586,50.34,589.74,61,589.74,72c0,10.16-3.62,20.77-10.73,28.11-7.68,8-17.27,10.5-28,10.5H520.87V33.18Zm27.21,59.61c3.16,0,5.19.23,8.13-1.35a13.83,13.83,0,0,0,5.08-5.08c2.71-4.52,3.61-9.71,3.61-14.91s-1.47-12-4.74-16.25c-3.73-4.63-7.34-4.41-12.76-4.41h-2.71v42Z" transform="translate(-5.22 -9.01)"/><path class="cls-2" d="M180.4,153.91c-2.09,5.57,9.55-2.58,12-4.14,3-1.88,10.54-6,12.05-7.15-4.14-6-21.83,5.27-24.09,11.29Zm120.06.38c-2.09,5.57,9.55-2.59,12-4.15,3-1.88,10.54-6,12-7.15-5-7.32-21.94,5.57-24.08,11.3Zm-110.65,9.4c.78-2.35-17.62,11-19.57,18.82-1,3.81,4.52-.38,5.27-1.51s13.92-16.18,14.3-17.31Zm307.41-16.87c9.15-3.59,17.64-6.11,16.31-7.78-2.8-3.48-12.19,2.59-17,8.41-1.65,2-1.29,2.77-1.29,2.77-.83,1.87.64,6.76,10.37,6.31,4.52-.21,14.8-1.62,14.8-1.47a362.58,362.58,0,0,1,64.3-2.64c4.29.61,6.87,1.43,5.87,5.19-8.15-2-37.47-3.2-82.74,2.69-16.06,2.09-17.89-5-17.88-7.85-15.23,5.53-25.27,7.93-28.09,7.37-2.12-.42-2.36-1.86-3.55-3-2.62-2.6,5.95-10.63,8.38-12.28,0,0-9.24-1.11-5.58-3.72-9.53,6.79-23.9,14.7-35.31,18-6.6,1.93-14.35.19-10.56-8.3-4.33,1.66-19.73,8.94-23,9.55-5.08.94-10.07-.6-8.93-5.57.33-1.48,3.48-4.4,4.54-5.46a37.93,37.93,0,0,1-3.88,1.84c-6.37,2.26-22.86,8.74-23,8.81a52.21,52.21,0,0,1-6.27.62c-3.16.18-4.8-1.91-5-5s3.55-7,8.24-10.64c-9.17,3.82-24.51,11.46-29.27,14-5.73,3-10.82-.14-10.82-3.53,0-2.82,2.62-4.64,4.39-6.81a98.15,98.15,0,0,1-12.54,7.92c-.47.24-4.12,2-4.58,2.24-.87.39-9.79,5.06-11.13-1.21-1.13-5.27,9.65-11,3.79-9.58-1,.22-14,5.38-24.11,10a43,43,0,0,1-6.78,2.26c-3.47,1-5.2-1.42-6.33-3.3-2.81-4.68,11.51-13,8.12-14.79-.13,0-18.37,7.8-23.14,10.42-2.49,1.34-14.9,8.49-15.3,7.09-2.12-4,.63-5.07,1-5.31,3.29-2.09,9.75-6.56,9.75-6.56,3.62-3.24,4.68-4.62,3.48-5-5.3.33-42.57,16.57-45.68,18.33-1.12.62-10.22,10.41-10.45,10.93-.42.9,1.64-1.37.95-.54-6.22,7.26-14.5,19.05-23.83,21.79-1.12-1.59-2-1.8-2.38-5.94s7-14.18,12.28-18.32,10.21-6.12,11.73-7.07c.39-.26,5.61-3,7.27-4.75,1.94-2.05,6-6.91,7.78-9.08a98.48,98.48,0,0,1-12.54,7.93L185,158.12c-.86.38-10.54,5-11.88-1.21-1.13-5.27,11.91-11.41,6.05-10-1.69.39-32.27,11.63-38.15,13-3.11.7-4.3.67-6.56-.49-1.45-.75-3.5-3.25-2.38-5.95.19-.49,1.79-1.48,1.79-1.48,2.32-1.1,3.44-2.31,5.36-3.47,1.69-1,6.55-4.07,7.15-4.46-10.74,1.32-19.66,4.72-28.6,7.43-4.39,1.32-18.74,7.45-22,8.92-1,.43-42.7,17.75-42.89,17.82-3,1-9.46,3.16-10.72,0-.37-.92.24-2,0-3-.54-2.46,32-13.86,34.55-14.85,1.15-.47,11.87-4.3,16.08-6,25.19-9.8,16-13.31,4.2-12.26-18.49,1.65-27.24,2.59-40.53,5.33-3.28.67-8.66,3.9-13.71,2.48-1-.3-1.17-1.75-1.78-2.48-.25.71-.58-1.86-.6-2,1.06-.39,0-.74.6-1,1.93-.81,3.57-.81,5.36-1.49,4.21-1.65,8.6-3.26,13.1-5,4.21-1.59,8.75-4.08,13.11-5.45,1.32-.43,16.33-5.83,16.68-5.94,6.11-2,17.87-5.94,17.87-5.94,6-1.92,11.17-2.71,17.28-4.46,1-.29,2.42-1.38,3.57-1.48,6.44-.7,5.66,2.38,5.36,5.94-.09,0-2.75.12-1.79-.5-11.44,1.41-53.65,15.6-63.74,19.81,11.28-1.41,41.52-6.16,47.66,2,1,1.27.56,2.26,1.19,4,.08,0,1.77,0,1.79,0,5.4-1.72,10.53-2.9,16.68-4.46,4-1,8.31-1.82,14.29-3.47,6.23-1.71,7,2.51,6.56,5-3.3,4.34-10.34,7.62-15,10.78-5.48,5.3,44.93-13.6,44.93-13.6,7.8-3.17,20.85-6.05,20.94-2.08,0,.24-.69,2.51-.09,2.49.22,0,3.37-2.39,4.26-2.49,1.21,1.28,3.48,2.33,3,4.95-.22,1.11-8.54,9.09-10.25,11.11,11.35-6.56,36.95-15.67,40.19-16.49,6.25-1.57,10.06,2.36,6.68,6.42,3.48-1.08,17.39-7.49,22.2-6.08.74.22,3.88,4.84,3.88,4.84-1.22,3.17-10.37,8.53-10.37,11.19,0,1.88,5.52,0,8.53-1.86,16.9-7.19,31.85-12.38,31.85-12.38,7.81-3.17,20.1-5.29,20.2-1.33,0,.25-.7,2.52-.1,2.5.22,0,3.37-2.4,4.27-2.5,1.2,1.29,3.48,2.34,3,5-.22,1.11-6.28,5.7-11,12.61,8.37-3.5,32.54-14.8,37.05-17.43,2.76-1.61,7.47-6.91,6.15-6-11.46-.05-28.64.7-29.19.51-2-1.69.5-3.28.6-4a189.13,189.13,0,0,0,20.25,0c5.42-.28,7.13,1.1,12.38,0,.9-.2,7-5.81,10.1-7.45l2.1-.62c14.26-1.54.39,6.4-.47,7.31,12.73,0,31.47-1.37,43.24-.63,4.91.29,1.37-2,5.67-.75.24.06.53.86,1.19,1,.22.73,1.86,4.24.59,4.95-1.54.84-7.56-.84-10.12-1-17.73-1.11-43.59.38-45.15.89s-10.63,8.29-11.41,9.17c-1.85,2.12-12.27,9.52-11,14.38,1.85,1.46,30.81-10.54,41.23-15.86a40.35,40.35,0,0,1,8.34-3.47c1-.23,1.92.22,3,0,1,1.86.59.65,1.41,3.33-5.19,2.51-10,6.42-14.51,9.55-1.17.78-4.18,2.58-3.58,4.59,2.2.82,16.73-5.67,20.79-7.41,2.75-1.25,14.95-7.09,14.95-7.09,5.76-2.1,6.05-1.85,8.34,2.48-1.76,1-4.09,2-5.95,3a18.53,18.53,0,0,0-6,4.81c-2,2.5-2.49,5.9,1.59,4.66,12.46-3.77,25.21-11.95,28-13.82.64-.42,4.33-3,4.65-3.23,1.88-1.13,1.39-1.43,3.88-2.05a6,6,0,0,1,2.92,2.48c.22.86,10,2,7.84,6-3.08,6.78-10.57,9.53-7.94,11.54,1.56,1.2,20.89-5.84,25.18-7.48,2.12-.81,3.58-3.29,5.13-4.94,6.21-6.56,11-7.75,17.32-8.44,2.23.2,7.48.41,7.65,4.26-.73,3.16-3.91,4.45-16.14,8.94-.57.21-9.08,3.22-8.24,2.58,0,0,.66-3.33,2.42-4Z" transform="translate(-5.22 -9.01)"/><polygon class="cls-1" points="617.65 179.46 615.75 179.46 615.75 171.98 613.01 171.98 613.01 170.38 620.4 170.38 620.4 171.98 617.65 171.98 617.65 179.46 617.65 179.46"/><polygon class="cls-1" points="630.23 179.46 628.46 179.46 628.46 171.87 628.44 171.87 626.74 179.46 624.88 179.46 623.23 171.87 623.2 171.87 623.2 179.46 621.43 179.46 621.43 170.38 624.2 170.38 625.85 177.54 625.87 177.54 627.49 170.38 630.23 170.38 630.23 179.46 630.23 179.46"/></svg>